<mxfile host="Electron" modified="2024-02-05T10:49:09.668Z" agent="Mozilla/5.0 (Windows NT 10.0; Win64; x64) AppleWebKit/537.36 (KHTML, like Gecko) draw.io/23.0.2 Chrome/120.0.6099.109 Electron/28.1.0 Safari/537.36" etag="DmIUDeLewVfH9EbStqov" version="23.0.2" type="device">
  <diagram name="Страница — 1" id="pQ8q6ckDTj6NExo2osQ6">
    <mxGraphModel dx="867" dy="557" grid="1" gridSize="10" guides="1" tooltips="1" connect="1" arrows="1" fold="1" page="1" pageScale="1" pageWidth="827" pageHeight="1169" math="0" shadow="0">
      <root>
        <mxCell id="0" />
        <mxCell id="1" parent="0" />
        <mxCell id="fS_-C7JciXsx0S3O4n0o-3" value="" style="edgeStyle=orthogonalEdgeStyle;rounded=0;orthogonalLoop=1;jettySize=auto;html=1;" edge="1" parent="1" source="fS_-C7JciXsx0S3O4n0o-1" target="fS_-C7JciXsx0S3O4n0o-2">
          <mxGeometry relative="1" as="geometry" />
        </mxCell>
        <mxCell id="fS_-C7JciXsx0S3O4n0o-1" value="начало" style="ellipse;whiteSpace=wrap;html=1;" vertex="1" parent="1">
          <mxGeometry x="359" y="240" width="121" height="40" as="geometry" />
        </mxCell>
        <mxCell id="fS_-C7JciXsx0S3O4n0o-17" style="edgeStyle=orthogonalEdgeStyle;rounded=0;orthogonalLoop=1;jettySize=auto;html=1;entryX=0.5;entryY=0;entryDx=0;entryDy=0;" edge="1" parent="1" source="fS_-C7JciXsx0S3O4n0o-2" target="fS_-C7JciXsx0S3O4n0o-4">
          <mxGeometry relative="1" as="geometry" />
        </mxCell>
        <mxCell id="fS_-C7JciXsx0S3O4n0o-2" value="присвоить x1_mod значение 240" style="rounded=0;whiteSpace=wrap;html=1;" vertex="1" parent="1">
          <mxGeometry x="360" y="300" width="120" height="40" as="geometry" />
        </mxCell>
        <mxCell id="fS_-C7JciXsx0S3O4n0o-18" style="edgeStyle=orthogonalEdgeStyle;rounded=0;orthogonalLoop=1;jettySize=auto;html=1;exitX=0.5;exitY=1;exitDx=0;exitDy=0;entryX=0.5;entryY=0;entryDx=0;entryDy=0;" edge="1" parent="1" source="fS_-C7JciXsx0S3O4n0o-4" target="fS_-C7JciXsx0S3O4n0o-5">
          <mxGeometry relative="1" as="geometry" />
        </mxCell>
        <mxCell id="fS_-C7JciXsx0S3O4n0o-4" value="присвоить x2_mod значение 240" style="rounded=0;whiteSpace=wrap;html=1;" vertex="1" parent="1">
          <mxGeometry x="360" y="360" width="120" height="40" as="geometry" />
        </mxCell>
        <mxCell id="fS_-C7JciXsx0S3O4n0o-19" style="edgeStyle=orthogonalEdgeStyle;rounded=0;orthogonalLoop=1;jettySize=auto;html=1;entryX=0.5;entryY=0;entryDx=0;entryDy=0;" edge="1" parent="1" source="fS_-C7JciXsx0S3O4n0o-5" target="fS_-C7JciXsx0S3O4n0o-9">
          <mxGeometry relative="1" as="geometry" />
        </mxCell>
        <mxCell id="fS_-C7JciXsx0S3O4n0o-5" value="присвоить x3_mod значение 240" style="rounded=0;whiteSpace=wrap;html=1;" vertex="1" parent="1">
          <mxGeometry x="359.5" y="420" width="120" height="40" as="geometry" />
        </mxCell>
        <mxCell id="fS_-C7JciXsx0S3O4n0o-20" style="edgeStyle=orthogonalEdgeStyle;rounded=0;orthogonalLoop=1;jettySize=auto;html=1;exitX=0.5;exitY=1;exitDx=0;exitDy=0;entryX=0.5;entryY=0;entryDx=0;entryDy=0;" edge="1" parent="1" source="fS_-C7JciXsx0S3O4n0o-9" target="fS_-C7JciXsx0S3O4n0o-10">
          <mxGeometry relative="1" as="geometry" />
        </mxCell>
        <mxCell id="fS_-C7JciXsx0S3O4n0o-9" value="присвоить y1_mod значение 150" style="rounded=0;whiteSpace=wrap;html=1;" vertex="1" parent="1">
          <mxGeometry x="360" y="480" width="120" height="40" as="geometry" />
        </mxCell>
        <mxCell id="fS_-C7JciXsx0S3O4n0o-22" value="" style="edgeStyle=orthogonalEdgeStyle;rounded=0;orthogonalLoop=1;jettySize=auto;html=1;" edge="1" parent="1" source="fS_-C7JciXsx0S3O4n0o-10" target="fS_-C7JciXsx0S3O4n0o-11">
          <mxGeometry relative="1" as="geometry" />
        </mxCell>
        <mxCell id="fS_-C7JciXsx0S3O4n0o-10" value="присвоить y2_mod значение 150" style="rounded=0;whiteSpace=wrap;html=1;" vertex="1" parent="1">
          <mxGeometry x="360" y="540" width="120" height="40" as="geometry" />
        </mxCell>
        <mxCell id="fS_-C7JciXsx0S3O4n0o-24" style="edgeStyle=orthogonalEdgeStyle;rounded=0;orthogonalLoop=1;jettySize=auto;html=1;exitX=0.5;exitY=1;exitDx=0;exitDy=0;entryX=0.5;entryY=0;entryDx=0;entryDy=0;" edge="1" parent="1" source="fS_-C7JciXsx0S3O4n0o-11" target="fS_-C7JciXsx0S3O4n0o-23">
          <mxGeometry relative="1" as="geometry" />
        </mxCell>
        <mxCell id="fS_-C7JciXsx0S3O4n0o-11" value="присвоить y3_mod значение 150" style="rounded=0;whiteSpace=wrap;html=1;" vertex="1" parent="1">
          <mxGeometry x="360" y="595.5" width="120" height="40" as="geometry" />
        </mxCell>
        <mxCell id="fS_-C7JciXsx0S3O4n0o-28" style="edgeStyle=orthogonalEdgeStyle;rounded=0;orthogonalLoop=1;jettySize=auto;html=1;entryX=0.5;entryY=0;entryDx=0;entryDy=0;" edge="1" parent="1" source="fS_-C7JciXsx0S3O4n0o-23" target="fS_-C7JciXsx0S3O4n0o-25">
          <mxGeometry relative="1" as="geometry" />
        </mxCell>
        <mxCell id="fS_-C7JciXsx0S3O4n0o-23" value="присвоить ang1 значение pi/3" style="rounded=0;whiteSpace=wrap;html=1;" vertex="1" parent="1">
          <mxGeometry x="360" y="655.5" width="120" height="40" as="geometry" />
        </mxCell>
        <mxCell id="fS_-C7JciXsx0S3O4n0o-29" style="edgeStyle=orthogonalEdgeStyle;rounded=0;orthogonalLoop=1;jettySize=auto;html=1;entryX=0.5;entryY=0;entryDx=0;entryDy=0;" edge="1" parent="1" source="fS_-C7JciXsx0S3O4n0o-25" target="fS_-C7JciXsx0S3O4n0o-26">
          <mxGeometry relative="1" as="geometry" />
        </mxCell>
        <mxCell id="fS_-C7JciXsx0S3O4n0o-25" value="присвоить ang2 значение -pi/3" style="rounded=0;whiteSpace=wrap;html=1;" vertex="1" parent="1">
          <mxGeometry x="360" y="715.5" width="120" height="40" as="geometry" />
        </mxCell>
        <mxCell id="fS_-C7JciXsx0S3O4n0o-33" style="edgeStyle=orthogonalEdgeStyle;rounded=0;orthogonalLoop=1;jettySize=auto;html=1;" edge="1" parent="1" source="fS_-C7JciXsx0S3O4n0o-26" target="fS_-C7JciXsx0S3O4n0o-30">
          <mxGeometry relative="1" as="geometry" />
        </mxCell>
        <mxCell id="fS_-C7JciXsx0S3O4n0o-26" value="присвоить ang3 значение pi" style="rounded=0;whiteSpace=wrap;html=1;" vertex="1" parent="1">
          <mxGeometry x="360" y="775.5" width="120" height="40" as="geometry" />
        </mxCell>
        <mxCell id="fS_-C7JciXsx0S3O4n0o-34" style="edgeStyle=orthogonalEdgeStyle;rounded=0;orthogonalLoop=1;jettySize=auto;html=1;entryX=0.5;entryY=0;entryDx=0;entryDy=0;" edge="1" parent="1" source="fS_-C7JciXsx0S3O4n0o-30" target="fS_-C7JciXsx0S3O4n0o-31">
          <mxGeometry relative="1" as="geometry" />
        </mxCell>
        <mxCell id="fS_-C7JciXsx0S3O4n0o-30" value="присвоить stp значение 5" style="rounded=0;whiteSpace=wrap;html=1;" vertex="1" parent="1">
          <mxGeometry x="360" y="835.5" width="120" height="40" as="geometry" />
        </mxCell>
        <mxCell id="fS_-C7JciXsx0S3O4n0o-35" style="edgeStyle=orthogonalEdgeStyle;rounded=0;orthogonalLoop=1;jettySize=auto;html=1;entryX=0.5;entryY=0;entryDx=0;entryDy=0;" edge="1" parent="1" source="fS_-C7JciXsx0S3O4n0o-31" target="fS_-C7JciXsx0S3O4n0o-32">
          <mxGeometry relative="1" as="geometry" />
        </mxCell>
        <mxCell id="fS_-C7JciXsx0S3O4n0o-31" value="присвоить len значение 300" style="rounded=0;whiteSpace=wrap;html=1;" vertex="1" parent="1">
          <mxGeometry x="360" y="900" width="120" height="40" as="geometry" />
        </mxCell>
        <mxCell id="fS_-C7JciXsx0S3O4n0o-48" style="edgeStyle=orthogonalEdgeStyle;rounded=0;orthogonalLoop=1;jettySize=auto;html=1;entryX=0.5;entryY=0;entryDx=0;entryDy=0;" edge="1" parent="1" source="fS_-C7JciXsx0S3O4n0o-32" target="fS_-C7JciXsx0S3O4n0o-36">
          <mxGeometry relative="1" as="geometry" />
        </mxCell>
        <mxCell id="fS_-C7JciXsx0S3O4n0o-32" value="SetWinowSize&lt;br&gt;(1920, 1200)" style="shape=process;whiteSpace=wrap;html=1;backgroundOutline=1;" vertex="1" parent="1">
          <mxGeometry x="520" y="300" width="120" height="40" as="geometry" />
        </mxCell>
        <mxCell id="fS_-C7JciXsx0S3O4n0o-49" style="edgeStyle=orthogonalEdgeStyle;rounded=0;orthogonalLoop=1;jettySize=auto;html=1;entryX=0.5;entryY=0;entryDx=0;entryDy=0;" edge="1" parent="1" source="fS_-C7JciXsx0S3O4n0o-36" target="fS_-C7JciXsx0S3O4n0o-38">
          <mxGeometry relative="1" as="geometry" />
        </mxCell>
        <mxCell id="fS_-C7JciXsx0S3O4n0o-36" value="CoordNormalize" style="shape=process;whiteSpace=wrap;html=1;backgroundOutline=1;" vertex="1" parent="1">
          <mxGeometry x="520" y="360" width="120" height="40" as="geometry" />
        </mxCell>
        <mxCell id="fS_-C7JciXsx0S3O4n0o-50" style="edgeStyle=orthogonalEdgeStyle;rounded=0;orthogonalLoop=1;jettySize=auto;html=1;exitX=0.5;exitY=1;exitDx=0;exitDy=0;entryX=0.5;entryY=0;entryDx=0;entryDy=0;" edge="1" parent="1" source="fS_-C7JciXsx0S3O4n0o-38" target="fS_-C7JciXsx0S3O4n0o-39">
          <mxGeometry relative="1" as="geometry" />
        </mxCell>
        <mxCell id="fS_-C7JciXsx0S3O4n0o-38" value="присвоить OnKeyDown значение KeyDown" style="rounded=0;whiteSpace=wrap;html=1;" vertex="1" parent="1">
          <mxGeometry x="520" y="420" width="120" height="40" as="geometry" />
        </mxCell>
        <mxCell id="fS_-C7JciXsx0S3O4n0o-51" style="edgeStyle=orthogonalEdgeStyle;rounded=0;orthogonalLoop=1;jettySize=auto;html=1;exitX=0.5;exitY=1;exitDx=0;exitDy=0;entryX=0.5;entryY=0;entryDx=0;entryDy=0;" edge="1" parent="1" source="fS_-C7JciXsx0S3O4n0o-39" target="fS_-C7JciXsx0S3O4n0o-40">
          <mxGeometry relative="1" as="geometry" />
        </mxCell>
        <mxCell id="fS_-C7JciXsx0S3O4n0o-39" value="присвоить OnMouseMove&lt;br&gt;значение MouseMove" style="rounded=0;whiteSpace=wrap;html=1;" vertex="1" parent="1">
          <mxGeometry x="520" y="470" width="120" height="60" as="geometry" />
        </mxCell>
        <mxCell id="fS_-C7JciXsx0S3O4n0o-52" style="edgeStyle=orthogonalEdgeStyle;rounded=0;orthogonalLoop=1;jettySize=auto;html=1;exitX=0.5;exitY=1;exitDx=0;exitDy=0;entryX=0.5;entryY=0;entryDx=0;entryDy=0;" edge="1" parent="1" source="fS_-C7JciXsx0S3O4n0o-40" target="fS_-C7JciXsx0S3O4n0o-41">
          <mxGeometry relative="1" as="geometry" />
        </mxCell>
        <mxCell id="fS_-C7JciXsx0S3O4n0o-40" value="MaximizeWindow" style="shape=process;whiteSpace=wrap;html=1;backgroundOutline=1;" vertex="1" parent="1">
          <mxGeometry x="520" y="540" width="120" height="40" as="geometry" />
        </mxCell>
        <mxCell id="fS_-C7JciXsx0S3O4n0o-53" style="edgeStyle=orthogonalEdgeStyle;rounded=0;orthogonalLoop=1;jettySize=auto;html=1;exitX=0.5;exitY=1;exitDx=0;exitDy=0;entryX=0.5;entryY=0;entryDx=0;entryDy=0;" edge="1" parent="1" source="fS_-C7JciXsx0S3O4n0o-41" target="fS_-C7JciXsx0S3O4n0o-42">
          <mxGeometry relative="1" as="geometry" />
        </mxCell>
        <mxCell id="fS_-C7JciXsx0S3O4n0o-41" value="SetWindowCaption&lt;br&gt;(&#39;Снежинка Коха&#39;)" style="shape=process;whiteSpace=wrap;html=1;backgroundOutline=1;" vertex="1" parent="1">
          <mxGeometry x="520" y="595.5" width="120" height="40" as="geometry" />
        </mxCell>
        <mxCell id="fS_-C7JciXsx0S3O4n0o-55" style="edgeStyle=orthogonalEdgeStyle;rounded=0;orthogonalLoop=1;jettySize=auto;html=1;exitX=0.5;exitY=1;exitDx=0;exitDy=0;entryX=0.5;entryY=0;entryDx=0;entryDy=0;" edge="1" parent="1" source="fS_-C7JciXsx0S3O4n0o-42" target="fS_-C7JciXsx0S3O4n0o-43">
          <mxGeometry relative="1" as="geometry" />
        </mxCell>
        <mxCell id="fS_-C7JciXsx0S3O4n0o-42" value="LockDrawing" style="shape=process;whiteSpace=wrap;html=1;backgroundOutline=1;" vertex="1" parent="1">
          <mxGeometry x="520" y="655.5" width="120" height="40" as="geometry" />
        </mxCell>
        <mxCell id="fS_-C7JciXsx0S3O4n0o-56" style="edgeStyle=orthogonalEdgeStyle;rounded=0;orthogonalLoop=1;jettySize=auto;html=1;exitX=0.5;exitY=1;exitDx=0;exitDy=0;entryX=0.5;entryY=0;entryDx=0;entryDy=0;" edge="1" parent="1" source="fS_-C7JciXsx0S3O4n0o-43" target="fS_-C7JciXsx0S3O4n0o-44">
          <mxGeometry relative="1" as="geometry" />
        </mxCell>
        <mxCell id="fS_-C7JciXsx0S3O4n0o-43" value="&lt;div&gt;&amp;nbsp; TextOut(5, 0, &#39;W - увеличение глубины A - увеличение масштаба S - уменьшение глубины D - увеличение масштаба I - инвертация фрактала Q - выход из программы&#39;)&lt;/div&gt;" style="shape=process;whiteSpace=wrap;html=1;backgroundOutline=1;" vertex="1" parent="1">
          <mxGeometry x="520" y="715.5" width="120" height="224.5" as="geometry" />
        </mxCell>
        <mxCell id="fS_-C7JciXsx0S3O4n0o-57" style="edgeStyle=orthogonalEdgeStyle;rounded=0;orthogonalLoop=1;jettySize=auto;html=1;exitX=0.5;exitY=1;exitDx=0;exitDy=0;entryX=0.5;entryY=0;entryDx=0;entryDy=0;" edge="1" parent="1" source="fS_-C7JciXsx0S3O4n0o-44" target="fS_-C7JciXsx0S3O4n0o-45">
          <mxGeometry relative="1" as="geometry" />
        </mxCell>
        <mxCell id="fS_-C7JciXsx0S3O4n0o-44" value="&lt;div&gt;&lt;br&gt;&lt;/div&gt;&lt;div&gt;&amp;nbsp; TextOut(5, 20, &#39;← - перемещение влево ↑ - перемещение вверх → - перемещение вправо ↓ - перемещение вниз&#39;);&lt;/div&gt;" style="shape=process;whiteSpace=wrap;html=1;backgroundOutline=1;" vertex="1" parent="1">
          <mxGeometry x="520" y="960" width="120" height="224.5" as="geometry" />
        </mxCell>
        <mxCell id="fS_-C7JciXsx0S3O4n0o-58" style="edgeStyle=orthogonalEdgeStyle;rounded=0;orthogonalLoop=1;jettySize=auto;html=1;exitX=0.5;exitY=1;exitDx=0;exitDy=0;entryX=0.5;entryY=0;entryDx=0;entryDy=0;" edge="1" parent="1" source="fS_-C7JciXsx0S3O4n0o-45" target="fS_-C7JciXsx0S3O4n0o-46">
          <mxGeometry relative="1" as="geometry" />
        </mxCell>
        <mxCell id="fS_-C7JciXsx0S3O4n0o-45" value="&lt;div&gt;&amp;nbsp; coh_rec(x1, y1, len, pi/3, stp);&lt;/div&gt;" style="shape=process;whiteSpace=wrap;html=1;backgroundOutline=1;" vertex="1" parent="1">
          <mxGeometry x="520" y="1200" width="120" height="40" as="geometry" />
        </mxCell>
        <mxCell id="fS_-C7JciXsx0S3O4n0o-59" style="edgeStyle=orthogonalEdgeStyle;rounded=0;orthogonalLoop=1;jettySize=auto;html=1;exitX=0.5;exitY=1;exitDx=0;exitDy=0;entryX=0.5;entryY=0;entryDx=0;entryDy=0;" edge="1" parent="1" source="fS_-C7JciXsx0S3O4n0o-46" target="fS_-C7JciXsx0S3O4n0o-47">
          <mxGeometry relative="1" as="geometry" />
        </mxCell>
        <mxCell id="fS_-C7JciXsx0S3O4n0o-46" value="&lt;div&gt;&lt;span style=&quot;background-color: initial;&quot;&gt;&amp;nbsp; coh_rec(x2, y2, len, -pi/3, stp);&lt;/span&gt;&lt;/div&gt;" style="shape=process;whiteSpace=wrap;html=1;backgroundOutline=1;" vertex="1" parent="1">
          <mxGeometry x="520" y="1260" width="120" height="40" as="geometry" />
        </mxCell>
        <mxCell id="fS_-C7JciXsx0S3O4n0o-61" style="edgeStyle=orthogonalEdgeStyle;rounded=0;orthogonalLoop=1;jettySize=auto;html=1;entryX=0.5;entryY=0;entryDx=0;entryDy=0;" edge="1" parent="1" source="fS_-C7JciXsx0S3O4n0o-47" target="fS_-C7JciXsx0S3O4n0o-60">
          <mxGeometry relative="1" as="geometry" />
        </mxCell>
        <mxCell id="fS_-C7JciXsx0S3O4n0o-47" value="&lt;div&gt;&lt;span style=&quot;background-color: initial;&quot;&gt;coh_rec(x3, y3, len, pi, stp)&lt;/span&gt;&lt;br&gt;&lt;/div&gt;" style="shape=process;whiteSpace=wrap;html=1;backgroundOutline=1;" vertex="1" parent="1">
          <mxGeometry x="520" y="1320" width="120" height="40" as="geometry" />
        </mxCell>
        <mxCell id="fS_-C7JciXsx0S3O4n0o-63" style="edgeStyle=orthogonalEdgeStyle;rounded=0;orthogonalLoop=1;jettySize=auto;html=1;exitX=0.5;exitY=1;exitDx=0;exitDy=0;entryX=0.5;entryY=0;entryDx=0;entryDy=0;" edge="1" parent="1" source="fS_-C7JciXsx0S3O4n0o-60" target="fS_-C7JciXsx0S3O4n0o-62">
          <mxGeometry relative="1" as="geometry" />
        </mxCell>
        <mxCell id="fS_-C7JciXsx0S3O4n0o-60" value="&lt;div&gt;&lt;span style=&quot;background-color: initial;&quot;&gt;Redraw&lt;/span&gt;&lt;br&gt;&lt;/div&gt;" style="shape=process;whiteSpace=wrap;html=1;backgroundOutline=1;" vertex="1" parent="1">
          <mxGeometry x="520" y="1380" width="120" height="40" as="geometry" />
        </mxCell>
        <mxCell id="fS_-C7JciXsx0S3O4n0o-62" value="конец" style="ellipse;whiteSpace=wrap;html=1;" vertex="1" parent="1">
          <mxGeometry x="520" y="1440" width="121" height="40" as="geometry" />
        </mxCell>
        <mxCell id="fS_-C7JciXsx0S3O4n0o-64" value="SetWindowSize(w, h) - процедура модуля GraphABC, которая устанавливает размеры клиентской части графического интерфейса в пикселах" style="text;html=1;strokeColor=#000000;fillColor=none;align=center;verticalAlign=middle;whiteSpace=wrap;rounded=0;dashed=1;perimeterSpacing=0;glass=0;shadow=0;" vertex="1" parent="1">
          <mxGeometry x="680" y="300" width="200" height="75" as="geometry" />
        </mxCell>
        <mxCell id="fS_-C7JciXsx0S3O4n0o-66" value="" style="endArrow=none;dashed=1;html=1;rounded=0;exitX=1;exitY=0.5;exitDx=0;exitDy=0;entryX=0;entryY=0.5;entryDx=0;entryDy=0;" edge="1" parent="1" source="fS_-C7JciXsx0S3O4n0o-32" target="fS_-C7JciXsx0S3O4n0o-64">
          <mxGeometry width="50" height="50" relative="1" as="geometry">
            <mxPoint x="710" y="490" as="sourcePoint" />
            <mxPoint x="680" y="320" as="targetPoint" />
          </mxGeometry>
        </mxCell>
        <mxCell id="fS_-C7JciXsx0S3O4n0o-67" value="OnKeyDown(key) - процедура модуля GraphABC, которая обрабатывает события нажатия клавиши" style="text;html=1;strokeColor=#000000;fillColor=none;align=center;verticalAlign=middle;whiteSpace=wrap;rounded=0;dashed=1;" vertex="1" parent="1">
          <mxGeometry x="680" y="390" width="200" height="57.5" as="geometry" />
        </mxCell>
        <mxCell id="fS_-C7JciXsx0S3O4n0o-68" value="" style="endArrow=none;dashed=1;html=1;rounded=0;exitX=1;exitY=0.5;exitDx=0;exitDy=0;entryX=0;entryY=0.5;entryDx=0;entryDy=0;" edge="1" parent="1" target="fS_-C7JciXsx0S3O4n0o-67" source="fS_-C7JciXsx0S3O4n0o-38">
          <mxGeometry width="50" height="50" relative="1" as="geometry">
            <mxPoint x="641" y="415" as="sourcePoint" />
            <mxPoint x="761" y="535" as="targetPoint" />
          </mxGeometry>
        </mxCell>
        <mxCell id="fS_-C7JciXsx0S3O4n0o-72" value="OnMouseMove(x, y, mousebutton) - процедура модуля GraphABC, которая обрабатывает события перемещения мыши. (x, y) - координаты курсора мыши в момент наступления события." style="text;html=1;strokeColor=#000000;fillColor=none;align=center;verticalAlign=middle;whiteSpace=wrap;rounded=0;dashed=1;" vertex="1" parent="1">
          <mxGeometry x="680" y="470" width="200" height="87.5" as="geometry" />
        </mxCell>
        <mxCell id="fS_-C7JciXsx0S3O4n0o-73" value="" style="endArrow=none;dashed=1;html=1;rounded=0;entryX=-0.008;entryY=0.617;entryDx=0;entryDy=0;entryPerimeter=0;exitX=1;exitY=0.5;exitDx=0;exitDy=0;" edge="1" parent="1" target="fS_-C7JciXsx0S3O4n0o-72" source="fS_-C7JciXsx0S3O4n0o-39">
          <mxGeometry width="50" height="50" relative="1" as="geometry">
            <mxPoint x="660" y="540" as="sourcePoint" />
            <mxPoint x="771" y="615" as="targetPoint" />
          </mxGeometry>
        </mxCell>
        <mxCell id="fS_-C7JciXsx0S3O4n0o-75" value="MaximizeWindow - процедура модуля GraphABC, которая максимизирует графическое окно" style="text;html=1;strokeColor=#000000;fillColor=none;align=center;verticalAlign=middle;whiteSpace=wrap;rounded=0;dashed=1;" vertex="1" parent="1">
          <mxGeometry x="680" y="580" width="200" height="44" as="geometry" />
        </mxCell>
        <mxCell id="fS_-C7JciXsx0S3O4n0o-76" value="" style="endArrow=none;dashed=1;html=1;rounded=0;exitX=1;exitY=0.5;exitDx=0;exitDy=0;entryX=0;entryY=0.5;entryDx=0;entryDy=0;" edge="1" parent="1" target="fS_-C7JciXsx0S3O4n0o-75" source="fS_-C7JciXsx0S3O4n0o-40">
          <mxGeometry width="50" height="50" relative="1" as="geometry">
            <mxPoint x="640" y="635.5" as="sourcePoint" />
            <mxPoint x="761" y="730.5" as="targetPoint" />
          </mxGeometry>
        </mxCell>
        <mxCell id="fS_-C7JciXsx0S3O4n0o-78" value="SetWindowCaption(s) - процедура модуля GraphABC, которая устанавливает заголовок графического окна" style="text;html=1;strokeColor=#000000;fillColor=none;align=center;verticalAlign=middle;whiteSpace=wrap;rounded=0;dashed=1;" vertex="1" parent="1">
          <mxGeometry x="680" y="646.75" width="200" height="57.5" as="geometry" />
        </mxCell>
        <mxCell id="fS_-C7JciXsx0S3O4n0o-79" value="" style="endArrow=none;dashed=1;html=1;rounded=0;exitX=1;exitY=0.5;exitDx=0;exitDy=0;entryX=0;entryY=0.5;entryDx=0;entryDy=0;" edge="1" parent="1" target="fS_-C7JciXsx0S3O4n0o-78" source="fS_-C7JciXsx0S3O4n0o-41">
          <mxGeometry width="50" height="50" relative="1" as="geometry">
            <mxPoint x="650" y="634" as="sourcePoint" />
            <mxPoint x="771" y="804.5" as="targetPoint" />
          </mxGeometry>
        </mxCell>
        <mxCell id="fS_-C7JciXsx0S3O4n0o-80" value="LockDrawing - процедура модуля GraphABC, которая блокирует рисование на графическом окне. Перерисовка графического окна&amp;nbsp; выполняется с помощью процедуры Redraw" style="text;html=1;strokeColor=#000000;fillColor=none;align=center;verticalAlign=middle;whiteSpace=wrap;rounded=0;dashed=1;" vertex="1" parent="1">
          <mxGeometry x="680" y="730" width="200" height="94.5" as="geometry" />
        </mxCell>
        <mxCell id="fS_-C7JciXsx0S3O4n0o-81" value="" style="endArrow=none;dashed=1;html=1;rounded=0;exitX=1;exitY=0.5;exitDx=0;exitDy=0;entryX=0;entryY=0.5;entryDx=0;entryDy=0;" edge="1" parent="1" target="fS_-C7JciXsx0S3O4n0o-80" source="fS_-C7JciXsx0S3O4n0o-42">
          <mxGeometry width="50" height="50" relative="1" as="geometry">
            <mxPoint x="650" y="693.5" as="sourcePoint" />
            <mxPoint x="781" y="882" as="targetPoint" />
          </mxGeometry>
        </mxCell>
        <mxCell id="fS_-C7JciXsx0S3O4n0o-82" value="TextOut(x, y, s) - процедура модуля GraphABC, которая выводит строку s в прямоугольник с координатами (x, y)" style="text;html=1;strokeColor=#000000;fillColor=none;align=center;verticalAlign=middle;whiteSpace=wrap;rounded=0;dashed=1;" vertex="1" parent="1">
          <mxGeometry x="680" y="842.5" width="200" height="57.5" as="geometry" />
        </mxCell>
        <mxCell id="fS_-C7JciXsx0S3O4n0o-83" value="" style="endArrow=none;dashed=1;html=1;rounded=0;exitX=1;exitY=0.5;exitDx=0;exitDy=0;entryX=0;entryY=0.5;entryDx=0;entryDy=0;" edge="1" parent="1" target="fS_-C7JciXsx0S3O4n0o-82">
          <mxGeometry width="50" height="50" relative="1" as="geometry">
            <mxPoint x="640" y="828" as="sourcePoint" />
            <mxPoint x="771" y="1016.5" as="targetPoint" />
          </mxGeometry>
        </mxCell>
        <mxCell id="fS_-C7JciXsx0S3O4n0o-85" value="Redraw - процедура модуля GraphABC, которая перерисовывает содержимое графического окна" style="text;html=1;strokeColor=#000000;fillColor=none;align=center;verticalAlign=middle;whiteSpace=wrap;rounded=0;dashed=1;" vertex="1" parent="1">
          <mxGeometry x="680" y="1371.25" width="200" height="57.5" as="geometry" />
        </mxCell>
        <mxCell id="fS_-C7JciXsx0S3O4n0o-86" value="" style="endArrow=none;dashed=1;html=1;rounded=0;exitX=1;exitY=0.5;exitDx=0;exitDy=0;entryX=0;entryY=0.5;entryDx=0;entryDy=0;" edge="1" parent="1" target="fS_-C7JciXsx0S3O4n0o-85" source="fS_-C7JciXsx0S3O4n0o-60">
          <mxGeometry width="50" height="50" relative="1" as="geometry">
            <mxPoint x="650" y="1221.25" as="sourcePoint" />
            <mxPoint x="781" y="1409.75" as="targetPoint" />
          </mxGeometry>
        </mxCell>
      </root>
    </mxGraphModel>
  </diagram>
</mxfile>
